<svg width="80" height="73" viewBox="0 0 80 73" fill="none" xmlns="http://www.w3.org/2000/svg">
<path d="M34.6328 35.6016C43.9297 35.6016 51.0391 27.6719 51.0391 17.7891C51.0391 8.41406 43.8125 0.210938 34.6328 0.210938C25.4531 0.210938 18.1484 8.41406 18.2266 17.7891C18.2656 27.6719 25.3359 35.6016 34.6328 35.6016ZM11.1562 72.75H58.1094C65.8438 72.75 68.3047 69.8984 68.3047 65.4844C68.3047 55.6016 54.8672 42.2031 34.6328 42.2031C14.3984 42.2031 0.960938 55.6016 0.960938 65.4844C0.960938 69.8984 3.42188 72.75 11.1562 72.75Z" fill="#FFCC4D"/>
<path d="M66.8018 45.5195C68.6035 45.5195 70.1123 43.9082 70.1123 42.2822V35.749H76.6309C78.3594 35.749 79.8682 34.2402 79.8682 32.4385C79.8682 30.6367 78.3594 29.1279 76.6309 29.1279H70.1123V22.6094C70.1123 20.8955 68.6035 19.3721 66.8018 19.3721C65 19.3721 63.4912 20.8955 63.4912 22.6094V29.1279H56.9727C55.3467 29.1279 53.7354 30.6367 53.7354 32.4385C53.7354 34.2402 55.3467 35.749 56.9727 35.749H63.4912V42.2822C63.4912 43.9082 65 45.5195 66.8018 45.5195Z" fill="#FFCC4D"/>
</svg>
