<svg width="24" height="24" viewBox="0 0 24 24" fill="none" xmlns="http://www.w3.org/2000/svg">
<path d="M16.0071 0H2.6643C1.19494 0 0 1.19494 0 2.6643V21.3357C0 22.8051 1.19494 24 2.6643 24H21.3357C22.8051 24 24 22.8051 24 21.3357V2.6643C24 1.19494 22.8051 0 21.3357 0H16.0071ZM21.3357 6.66075H17.3393V2.6643H21.3357V6.66075ZM2.6643 9.32504H6.66075V14.675H2.6643V9.32504ZM9.32504 9.32504H14.675V14.675H9.32504V9.32504ZM17.3393 9.32504H21.3357V14.675H17.3393V9.32504ZM14.675 2.6643V6.66075H9.32504V2.6643H14.675ZM6.66075 2.6643V6.66075H2.6643V2.6643H6.66075ZM2.6643 17.3393H6.66075V21.3357H2.6643V17.3393ZM9.32504 21.3357V17.3393H14.675V21.3357H9.32504ZM17.3393 21.3357V17.3393H21.337V21.3357H17.3393Z" fill="#FF2D55"/>
</svg>
