<svg width="334" height="27" viewBox="0 0 334 27" fill="none" xmlns="http://www.w3.org/2000/svg">
<path d="M30.6279 6.633C30.3516 6.633 30.1279 6.40936 30.1279 6.133V1.133C30.1279 0.856628 30.3516 0.632996 30.6279 0.632996C30.9043 0.632996 31.1279 0.856628 31.1279 1.133V6.133C31.1279 6.40936 30.9043 6.633 30.6279 6.633Z" fill="white"/>
<path d="M34.5942 6.633C34.3179 6.633 34.0942 6.40936 34.0942 6.133V1.133C34.0942 0.856628 34.3179 0.632996 34.5942 0.632996C34.8706 0.632996 35.0942 0.856628 35.0942 1.133V6.133C35.0942 6.40936 34.8706 6.633 34.5942 6.633Z" fill="white"/>
<path d="M38.5601 6.633C38.2837 6.633 38.0601 6.40936 38.0601 6.133V1.133C38.0601 0.856628 38.2837 0.632996 38.5601 0.632996C38.8364 0.632996 39.0601 0.856628 39.0601 1.133V6.133C39.0601 6.40936 38.8364 6.633 38.5601 6.633Z" fill="white"/>
<path d="M26.6616 6.633C26.3853 6.633 26.1616 6.40936 26.1616 6.133V1.133C26.1616 0.856628 26.3853 0.632996 26.6616 0.632996C26.938 0.632996 27.1616 0.856628 27.1616 1.133V6.133C27.1616 6.40936 26.938 6.633 26.6616 6.633Z" fill="white"/>
<path d="M42.5264 9.633C42.25 9.633 42.0264 9.40936 42.0264 9.133V1.133C42.0264 0.856628 42.25 0.632996 42.5264 0.632996C42.8027 0.632996 43.0264 0.856628 43.0264 1.133V9.133C43.0264 9.40936 42.8027 9.633 42.5264 9.633Z" fill="white"/>
<path d="M22.6958 11.633C22.4194 11.633 22.1958 11.4094 22.1958 11.133V1.133C22.1958 0.856628 22.4194 0.632996 22.6958 0.632996C22.9722 0.632996 23.1958 0.856628 23.1958 1.133V11.133C23.1958 11.4094 22.9722 11.633 22.6958 11.633Z" fill="white"/>
<path d="M50.459 6.633C50.1826 6.633 49.959 6.40936 49.959 6.133V1.133C49.959 0.856628 50.1826 0.632996 50.459 0.632996C50.7354 0.632996 50.959 0.856628 50.959 1.133V6.133C50.959 6.40936 50.7354 6.633 50.459 6.633Z" fill="white"/>
<path d="M54.4248 6.633C54.1484 6.633 53.9248 6.40936 53.9248 6.133V1.133C53.9248 0.856628 54.1484 0.632996 54.4248 0.632996C54.7012 0.632996 54.9248 0.856628 54.9248 1.133V6.133C54.9248 6.40936 54.7012 6.633 54.4248 6.633Z" fill="white"/>
<path d="M58.3911 6.633C58.1147 6.633 57.8911 6.40936 57.8911 6.133V1.133C57.8911 0.856628 58.1147 0.632996 58.3911 0.632996C58.6675 0.632996 58.8911 0.856628 58.8911 1.133V6.133C58.8911 6.40936 58.6675 6.633 58.3911 6.633Z" fill="white"/>
<path d="M46.4927 6.633C46.2163 6.633 45.9927 6.40936 45.9927 6.133V1.133C45.9927 0.856628 46.2163 0.632996 46.4927 0.632996C46.769 0.632996 46.9927 0.856628 46.9927 1.133V6.133C46.9927 6.40936 46.769 6.633 46.4927 6.633Z" fill="white"/>
<path d="M62.3574 11.633C62.0811 11.633 61.8574 11.4094 61.8574 11.133V1.133C61.8574 0.856628 62.0811 0.632996 62.3574 0.632996C62.6338 0.632996 62.8574 0.856628 62.8574 1.133V11.133C62.8574 11.4094 62.6338 11.633 62.3574 11.633Z" fill="white"/>
<path d="M70.2896 6.633C70.0132 6.633 69.7896 6.40936 69.7896 6.133V1.133C69.7896 0.856628 70.0132 0.632996 70.2896 0.632996C70.5659 0.632996 70.7896 0.856628 70.7896 1.133V6.133C70.7896 6.40936 70.5659 6.633 70.2896 6.633Z" fill="white"/>
<path d="M74.2559 6.633C73.9795 6.633 73.7559 6.40936 73.7559 6.133V1.133C73.7559 0.856628 73.9795 0.632996 74.2559 0.632996C74.5322 0.632996 74.7559 0.856628 74.7559 1.133V6.133C74.7559 6.40936 74.5322 6.633 74.2559 6.633Z" fill="white"/>
<path d="M78.2222 6.633C77.9458 6.633 77.7222 6.40936 77.7222 6.133V1.133C77.7222 0.856628 77.9458 0.632996 78.2222 0.632996C78.4985 0.632996 78.7222 0.856628 78.7222 1.133V6.133C78.7222 6.40936 78.4985 6.633 78.2222 6.633Z" fill="white"/>
<path d="M66.3237 6.633C66.0474 6.633 65.8237 6.40936 65.8237 6.133V1.133C65.8237 0.856628 66.0474 0.632996 66.3237 0.632996C66.6001 0.632996 66.8237 0.856628 66.8237 1.133V6.133C66.8237 6.40936 66.6001 6.633 66.3237 6.633Z" fill="white"/>
<path d="M82.1885 9.633C81.9121 9.633 81.6885 9.40936 81.6885 9.133V1.133C81.6885 0.856628 81.9121 0.632996 82.1885 0.632996C82.4648 0.632996 82.6885 0.856628 82.6885 1.133V9.133C82.6885 9.40936 82.4648 9.633 82.1885 9.633Z" fill="white"/>
<path d="M90.1206 6.633C89.8442 6.633 89.6206 6.40936 89.6206 6.133V1.133C89.6206 0.856628 89.8442 0.632996 90.1206 0.632996C90.397 0.632996 90.6206 0.856628 90.6206 1.133V6.133C90.6206 6.40936 90.397 6.633 90.1206 6.633Z" fill="white"/>
<path d="M94.0869 6.633C93.8105 6.633 93.5869 6.40936 93.5869 6.133V1.133C93.5869 0.856628 93.8105 0.632996 94.0869 0.632996C94.3633 0.632996 94.5869 0.856628 94.5869 1.133V6.133C94.5869 6.40936 94.3633 6.633 94.0869 6.633Z" fill="white"/>
<path d="M98.0532 6.633C97.7769 6.633 97.5532 6.40936 97.5532 6.133V1.133C97.5532 0.856628 97.7769 0.632996 98.0532 0.632996C98.3296 0.632996 98.5532 0.856628 98.5532 1.133V6.133C98.5532 6.40936 98.3296 6.633 98.0532 6.633Z" fill="white"/>
<path d="M86.1543 6.633C85.8779 6.633 85.6543 6.40936 85.6543 6.133V1.133C85.6543 0.856628 85.8779 0.632996 86.1543 0.632996C86.4307 0.632996 86.6543 0.856628 86.6543 1.133V6.133C86.6543 6.40936 86.4307 6.633 86.1543 6.633Z" fill="white"/>
<path d="M102.019 11.633C101.743 11.633 101.519 11.4094 101.519 11.133V1.133C101.519 0.856628 101.743 0.632996 102.019 0.632996C102.295 0.632996 102.519 0.856628 102.519 1.133V11.133C102.519 11.4094 102.295 11.633 102.019 11.633Z" fill="white"/>
<path d="M109.952 6.633C109.675 6.633 109.452 6.40936 109.452 6.133V1.133C109.452 0.856628 109.675 0.632996 109.952 0.632996C110.228 0.632996 110.452 0.856628 110.452 1.133V6.133C110.452 6.40936 110.228 6.633 109.952 6.633Z" fill="white"/>
<path d="M113.918 6.633C113.642 6.633 113.418 6.40936 113.418 6.133V1.133C113.418 0.856628 113.642 0.632996 113.918 0.632996C114.194 0.632996 114.418 0.856628 114.418 1.133V6.133C114.418 6.40936 114.194 6.633 113.918 6.633Z" fill="white"/>
<path d="M117.884 6.633C117.607 6.633 117.384 6.40936 117.384 6.133V1.133C117.384 0.856628 117.607 0.632996 117.884 0.632996C118.16 0.632996 118.384 0.856628 118.384 1.133V6.133C118.384 6.40936 118.16 6.633 117.884 6.633Z" fill="white"/>
<path d="M105.985 6.633C105.709 6.633 105.485 6.40936 105.485 6.133V1.133C105.485 0.856628 105.709 0.632996 105.985 0.632996C106.262 0.632996 106.485 0.856628 106.485 1.133V6.133C106.485 6.40936 106.262 6.633 105.985 6.633Z" fill="white"/>
<path d="M121.85 9.633C121.574 9.633 121.35 9.40936 121.35 9.133V1.133C121.35 0.856628 121.574 0.632996 121.85 0.632996C122.126 0.632996 122.35 0.856628 122.35 1.133V9.133C122.35 9.40936 122.126 9.633 121.85 9.633Z" fill="white"/>
<path d="M129.783 6.633C129.506 6.633 129.283 6.40936 129.283 6.133V1.133C129.283 0.856628 129.506 0.632996 129.783 0.632996C130.059 0.632996 130.283 0.856628 130.283 1.133V6.133C130.283 6.40936 130.059 6.633 129.783 6.633Z" fill="white"/>
<path d="M133.749 6.633C133.472 6.633 133.249 6.40936 133.249 6.133V1.133C133.249 0.856628 133.472 0.632996 133.749 0.632996C134.025 0.632996 134.249 0.856628 134.249 1.133V6.133C134.249 6.40936 134.025 6.633 133.749 6.633Z" fill="white"/>
<path d="M137.715 6.633C137.438 6.633 137.215 6.40936 137.215 6.133V1.133C137.215 0.856628 137.438 0.632996 137.715 0.632996C137.991 0.632996 138.215 0.856628 138.215 1.133V6.133C138.215 6.40936 137.991 6.633 137.715 6.633Z" fill="white"/>
<path d="M125.816 6.633C125.54 6.633 125.316 6.40936 125.316 6.133V1.133C125.316 0.856628 125.54 0.632996 125.816 0.632996C126.093 0.632996 126.316 0.856628 126.316 1.133V6.133C126.316 6.40936 126.093 6.633 125.816 6.633Z" fill="white"/>
<path d="M141.681 11.633C141.405 11.633 141.181 11.4094 141.181 11.133V1.133C141.181 0.856628 141.405 0.632996 141.681 0.632996C141.958 0.632996 142.181 0.856628 142.181 1.133V11.133C142.181 11.4094 141.958 11.633 141.681 11.633Z" fill="white"/>
<path d="M149.613 6.633C149.337 6.633 149.113 6.40936 149.113 6.133V1.133C149.113 0.856628 149.337 0.632996 149.613 0.632996C149.89 0.632996 150.113 0.856628 150.113 1.133V6.133C150.113 6.40936 149.89 6.633 149.613 6.633Z" fill="white"/>
<path d="M153.58 6.633C153.303 6.633 153.08 6.40936 153.08 6.133V1.133C153.08 0.856628 153.303 0.632996 153.58 0.632996C153.856 0.632996 154.08 0.856628 154.08 1.133V6.133C154.08 6.40936 153.856 6.633 153.58 6.633Z" fill="white"/>
<path d="M157.546 6.633C157.27 6.633 157.046 6.40936 157.046 6.133V1.133C157.046 0.856628 157.27 0.632996 157.546 0.632996C157.822 0.632996 158.046 0.856628 158.046 1.133V6.133C158.046 6.40936 157.822 6.633 157.546 6.633Z" fill="white"/>
<path d="M145.647 6.633C145.371 6.633 145.147 6.40936 145.147 6.133V1.133C145.147 0.856628 145.371 0.632996 145.647 0.632996C145.924 0.632996 146.147 0.856628 146.147 1.133V6.133C146.147 6.40936 145.924 6.633 145.647 6.633Z" fill="white"/>
<path d="M161.512 9.633C161.236 9.633 161.012 9.40936 161.012 9.133V1.133C161.012 0.856628 161.236 0.632996 161.512 0.632996C161.789 0.632996 162.012 0.856628 162.012 1.133V9.133C162.012 9.40936 161.789 9.633 161.512 9.633Z" fill="white"/>
<path d="M169.444 6.633C169.168 6.633 168.944 6.40936 168.944 6.133V1.133C168.944 0.856628 169.168 0.632996 169.444 0.632996C169.721 0.632996 169.944 0.856628 169.944 1.133V6.133C169.944 6.40936 169.721 6.633 169.444 6.633Z" fill="white"/>
<path d="M173.411 6.633C173.134 6.633 172.911 6.40936 172.911 6.133V1.133C172.911 0.856628 173.134 0.632996 173.411 0.632996C173.687 0.632996 173.911 0.856628 173.911 1.133V6.133C173.911 6.40936 173.687 6.633 173.411 6.633Z" fill="white"/>
<path d="M177.376 6.633C177.1 6.633 176.876 6.40936 176.876 6.133V1.133C176.876 0.856628 177.1 0.632996 177.376 0.632996C177.653 0.632996 177.876 0.856628 177.876 1.133V6.133C177.876 6.40936 177.653 6.633 177.376 6.633Z" fill="white"/>
<path d="M165.478 6.633C165.202 6.633 164.978 6.40936 164.978 6.133V1.133C164.978 0.856628 165.202 0.632996 165.478 0.632996C165.754 0.632996 165.978 0.856628 165.978 1.133V6.133C165.978 6.40936 165.754 6.633 165.478 6.633Z" fill="white"/>
<path d="M181.343 11.633C181.066 11.633 180.843 11.4094 180.843 11.133V1.133C180.843 0.856628 181.066 0.632996 181.343 0.632996C181.619 0.632996 181.843 0.856628 181.843 1.133V11.133C181.843 11.4094 181.619 11.633 181.343 11.633Z" fill="white"/>
<path d="M189.275 6.633C188.999 6.633 188.775 6.40936 188.775 6.133V1.133C188.775 0.856628 188.999 0.632996 189.275 0.632996C189.552 0.632996 189.775 0.856628 189.775 1.133V6.133C189.775 6.40936 189.552 6.633 189.275 6.633Z" fill="white"/>
<path d="M193.241 6.633C192.965 6.633 192.741 6.40936 192.741 6.133V1.133C192.741 0.856628 192.965 0.632996 193.241 0.632996C193.518 0.632996 193.741 0.856628 193.741 1.133V6.133C193.741 6.40936 193.518 6.633 193.241 6.633Z" fill="white"/>
<path d="M197.208 6.633C196.931 6.633 196.708 6.40936 196.708 6.133V1.133C196.708 0.856628 196.931 0.632996 197.208 0.632996C197.484 0.632996 197.708 0.856628 197.708 1.133V6.133C197.708 6.40936 197.484 6.633 197.208 6.633Z" fill="white"/>
<path d="M185.309 6.633C185.033 6.633 184.809 6.40936 184.809 6.133V1.133C184.809 0.856628 185.033 0.632996 185.309 0.632996C185.585 0.632996 185.809 0.856628 185.809 1.133V6.133C185.809 6.40936 185.585 6.633 185.309 6.633Z" fill="white"/>
<path d="M201.174 9.633C200.897 9.633 200.674 9.40936 200.674 9.133V1.133C200.674 0.856628 200.897 0.632996 201.174 0.632996C201.45 0.632996 201.674 0.856628 201.674 1.133V9.133C201.674 9.40936 201.45 9.633 201.174 9.633Z" fill="white"/>
<path d="M209.106 6.633C208.83 6.633 208.606 6.40936 208.606 6.133V1.133C208.606 0.856628 208.83 0.632996 209.106 0.632996C209.382 0.632996 209.606 0.856628 209.606 1.133V6.133C209.606 6.40936 209.382 6.633 209.106 6.633Z" fill="white"/>
<path d="M213.072 6.633C212.796 6.633 212.572 6.40936 212.572 6.133V1.133C212.572 0.856628 212.796 0.632996 213.072 0.632996C213.349 0.632996 213.572 0.856628 213.572 1.133V6.133C213.572 6.40936 213.349 6.633 213.072 6.633Z" fill="white"/>
<path d="M217.039 6.633C216.762 6.633 216.539 6.40936 216.539 6.133V1.133C216.539 0.856628 216.762 0.632996 217.039 0.632996C217.315 0.632996 217.539 0.856628 217.539 1.133V6.133C217.539 6.40936 217.315 6.633 217.039 6.633Z" fill="white"/>
<path d="M205.14 6.633C204.864 6.633 204.64 6.40936 204.64 6.133V1.133C204.64 0.856628 204.864 0.632996 205.14 0.632996C205.417 0.632996 205.64 0.856628 205.64 1.133V6.133C205.64 6.40936 205.417 6.633 205.14 6.633Z" fill="white"/>
<path d="M221.005 11.633C220.729 11.633 220.505 11.4094 220.505 11.133V1.133C220.505 0.856628 220.729 0.632996 221.005 0.632996C221.281 0.632996 221.505 0.856628 221.505 1.133V11.133C221.505 11.4094 221.281 11.633 221.005 11.633Z" fill="white"/>
<path d="M228.937 6.633C228.661 6.633 228.437 6.40936 228.437 6.133V1.133C228.437 0.856628 228.661 0.632996 228.937 0.632996C229.213 0.632996 229.437 0.856628 229.437 1.133V6.133C229.437 6.40936 229.213 6.633 228.937 6.633Z" fill="white"/>
<path d="M232.903 6.633C232.627 6.633 232.403 6.40936 232.403 6.133V1.133C232.403 0.856628 232.627 0.632996 232.903 0.632996C233.18 0.632996 233.403 0.856628 233.403 1.133V6.133C233.403 6.40936 233.18 6.633 232.903 6.633Z" fill="white"/>
<path d="M236.87 6.633C236.593 6.633 236.37 6.40936 236.37 6.133V1.133C236.37 0.856628 236.593 0.632996 236.87 0.632996C237.146 0.632996 237.37 0.856628 237.37 1.133V6.133C237.37 6.40936 237.146 6.633 236.87 6.633Z" fill="white"/>
<path d="M224.971 6.633C224.694 6.633 224.471 6.40936 224.471 6.133V1.133C224.471 0.856628 224.694 0.632996 224.971 0.632996C225.247 0.632996 225.471 0.856628 225.471 1.133V6.133C225.471 6.40936 225.247 6.633 224.971 6.633Z" fill="white"/>
<path d="M240.835 9.633C240.559 9.633 240.335 9.40936 240.335 9.133V1.133C240.335 0.856628 240.559 0.632996 240.835 0.632996C241.112 0.632996 241.335 0.856628 241.335 1.133V9.133C241.335 9.40936 241.112 9.633 240.835 9.633Z" fill="white"/>
<path d="M248.768 6.633C248.492 6.633 248.268 6.40936 248.268 6.133V1.133C248.268 0.856628 248.492 0.632996 248.768 0.632996C249.044 0.632996 249.268 0.856628 249.268 1.133V6.133C249.268 6.40936 249.044 6.633 248.768 6.633Z" fill="white"/>
<path d="M252.734 6.633C252.458 6.633 252.234 6.40936 252.234 6.133V1.133C252.234 0.856628 252.458 0.632996 252.734 0.632996C253.011 0.632996 253.234 0.856628 253.234 1.133V6.133C253.234 6.40936 253.011 6.633 252.734 6.633Z" fill="white"/>
<path d="M256.7 6.633C256.424 6.633 256.2 6.40936 256.2 6.133V1.133C256.2 0.856628 256.424 0.632996 256.7 0.632996C256.977 0.632996 257.2 0.856628 257.2 1.133V6.133C257.2 6.40936 256.977 6.633 256.7 6.633Z" fill="white"/>
<path d="M244.802 6.633C244.525 6.633 244.302 6.40936 244.302 6.133V1.133C244.302 0.856628 244.525 0.632996 244.802 0.632996C245.078 0.632996 245.302 0.856628 245.302 1.133V6.133C245.302 6.40936 245.078 6.633 244.802 6.633Z" fill="white"/>
<path d="M260.667 11.633C260.39 11.633 260.167 11.4094 260.167 11.133V1.133C260.167 0.856628 260.39 0.632996 260.667 0.632996C260.943 0.632996 261.167 0.856628 261.167 1.133V11.133C261.167 11.4094 260.943 11.633 260.667 11.633Z" fill="white"/>
<path d="M268.599 6.633C268.323 6.633 268.099 6.40936 268.099 6.133V1.133C268.099 0.856628 268.323 0.632996 268.599 0.632996C268.875 0.632996 269.099 0.856628 269.099 1.133V6.133C269.099 6.40936 268.875 6.633 268.599 6.633Z" fill="white"/>
<path d="M272.565 6.633C272.289 6.633 272.065 6.40936 272.065 6.133V1.133C272.065 0.856628 272.289 0.632996 272.565 0.632996C272.841 0.632996 273.065 0.856628 273.065 1.133V6.133C273.065 6.40936 272.841 6.633 272.565 6.633Z" fill="white"/>
<path d="M276.531 6.633C276.255 6.633 276.031 6.40936 276.031 6.133V1.133C276.031 0.856628 276.255 0.632996 276.531 0.632996C276.808 0.632996 277.031 0.856628 277.031 1.133V6.133C277.031 6.40936 276.808 6.633 276.531 6.633Z" fill="white"/>
<path d="M264.633 6.633C264.356 6.633 264.133 6.40936 264.133 6.133V1.133C264.133 0.856628 264.356 0.632996 264.633 0.632996C264.909 0.632996 265.133 0.856628 265.133 1.133V6.133C265.133 6.40936 264.909 6.633 264.633 6.633Z" fill="white"/>
<path d="M280.498 9.633C280.221 9.633 279.998 9.40936 279.998 9.133V1.133C279.998 0.856628 280.221 0.632996 280.498 0.632996C280.774 0.632996 280.998 0.856628 280.998 1.133V9.133C280.998 9.40936 280.774 9.633 280.498 9.633Z" fill="white"/>
<path d="M288.43 6.633C288.153 6.633 287.93 6.40936 287.93 6.133V1.133C287.93 0.856628 288.153 0.632996 288.43 0.632996C288.706 0.632996 288.93 0.856628 288.93 1.133V6.133C288.93 6.40936 288.706 6.633 288.43 6.633Z" fill="white"/>
<path d="M292.396 6.633C292.12 6.633 291.896 6.40936 291.896 6.133V1.133C291.896 0.856628 292.12 0.632996 292.396 0.632996C292.672 0.632996 292.896 0.856628 292.896 1.133V6.133C292.896 6.40936 292.672 6.633 292.396 6.633Z" fill="white"/>
<path d="M296.362 6.633C296.086 6.633 295.862 6.40936 295.862 6.133V1.133C295.862 0.856628 296.086 0.632996 296.362 0.632996C296.639 0.632996 296.862 0.856628 296.862 1.133V6.133C296.862 6.40936 296.639 6.633 296.362 6.633Z" fill="white"/>
<path d="M285.011 6C284.734 6 284.511 5.77637 284.511 5.5V0.5C284.511 0.223633 284.734 0 285.011 0C285.287 0 285.511 0.223633 285.511 0.5V5.5C285.511 5.77637 285.287 6 285.011 6Z" fill="white"/>
<path d="M300.328 11.633C300.052 11.633 299.828 11.4094 299.828 11.133V1.133C299.828 0.856628 300.052 0.632996 300.328 0.632996C300.604 0.632996 300.828 0.856628 300.828 1.133V11.133C300.828 11.4094 300.604 11.633 300.328 11.633Z" fill="white"/>
<path d="M308.261 6.633C307.984 6.633 307.761 6.40936 307.761 6.133V1.133C307.761 0.856628 307.984 0.632996 308.261 0.632996C308.537 0.632996 308.761 0.856628 308.761 1.133V6.133C308.761 6.40936 308.537 6.633 308.261 6.633Z" fill="white"/>
<path d="M312.227 6.633C311.95 6.633 311.727 6.40936 311.727 6.133V1.133C311.727 0.856628 311.95 0.632996 312.227 0.632996C312.503 0.632996 312.727 0.856628 312.727 1.133V6.133C312.727 6.40936 312.503 6.633 312.227 6.633Z" fill="white"/>
<path d="M316.193 6.633C315.917 6.633 315.693 6.40936 315.693 6.133V1.133C315.693 0.856628 315.917 0.632996 316.193 0.632996C316.47 0.632996 316.693 0.856628 316.693 1.133V6.133C316.693 6.40936 316.47 6.633 316.193 6.633Z" fill="white"/>
<path d="M304.295 6.633C304.019 6.633 303.795 6.40936 303.795 6.133V1.133C303.795 0.856628 304.019 0.632996 304.295 0.632996C304.571 0.632996 304.795 0.856628 304.795 1.133V6.133C304.795 6.40936 304.571 6.633 304.295 6.633Z" fill="white"/>
<path d="M320.159 9.633C319.883 9.633 319.659 9.40936 319.659 9.133V1.133C319.659 0.856628 319.883 0.632996 320.159 0.632996C320.436 0.632996 320.659 0.856628 320.659 1.133V9.133C320.659 9.40936 320.436 9.633 320.159 9.633Z" fill="white"/>
<path d="M328.092 6.633C327.815 6.633 327.592 6.40936 327.592 6.133V1.133C327.592 0.856628 327.815 0.632996 328.092 0.632996C328.368 0.632996 328.592 0.856628 328.592 1.133V6.133C328.592 6.40936 328.368 6.633 328.092 6.633Z" fill="white"/>
<path d="M332.058 6.633C331.781 6.633 331.558 6.40936 331.558 6.133V1.133C331.558 0.856628 331.781 0.632996 332.058 0.632996C332.334 0.632996 332.558 0.856628 332.558 1.133V6.133C332.558 6.40936 332.334 6.633 332.058 6.633Z" fill="white"/>
<path d="M324.125 6.633C323.849 6.633 323.625 6.40936 323.625 6.133V1.133C323.625 0.856628 323.849 0.632996 324.125 0.632996C324.401 0.632996 324.625 0.856628 324.625 1.133V6.133C324.625 6.40936 324.401 6.633 324.125 6.633Z" fill="white"/>
<path d="M25.3848 20.2365C25.3848 21.506 25.168 22.4494 24.7344 23.0666C24.3008 23.6838 23.623 23.9924 22.7012 23.9924C21.791 23.9924 21.1172 23.6906 20.6797 23.0871C20.2422 22.4836 20.0156 21.5822 20 20.383V18.9357C20 17.6818 20.2168 16.7502 20.6504 16.1408C21.084 15.5314 21.7637 15.2267 22.6895 15.2267C23.6074 15.2267 24.2832 15.5207 24.7168 16.1086C25.1504 16.6965 25.373 17.6037 25.3848 18.8303V20.2365V20.2365ZM24.3008 18.7541C24.3008 17.8361 24.1719 17.1672 23.9141 16.7473C23.6562 16.3273 23.248 16.1174 22.6895 16.1174C22.1348 16.1174 21.7305 16.3264 21.4766 16.7443C21.2227 17.1623 21.0918 17.8049 21.084 18.6721V20.4064C21.084 21.3283 21.2178 22.009 21.4854 22.4484C21.7529 22.8879 22.1582 23.1076 22.7012 23.1076C23.2363 23.1076 23.6338 22.9006 23.8936 22.4865C24.1533 22.0724 24.2891 21.4201 24.3008 20.5295V18.7541V18.7541Z" fill="white"/>
<path d="M63.2598 23.3664H62.1699V16.1418L59.9844 16.9445V15.9601L63.0898 14.7941H63.2598V23.3664Z" fill="white"/>
<path d="M218.842 19.0891L219.276 14.8351H223.647V15.8371H220.196L219.938 18.1633C220.356 17.9172 220.831 17.7941 221.362 17.7941C222.139 17.7941 222.756 18.051 223.213 18.5646C223.67 19.0783 223.899 19.7726 223.899 20.6476C223.899 21.5266 223.662 22.2189 223.187 22.7248C222.712 23.2307 222.049 23.4836 221.198 23.4836C220.444 23.4836 219.829 23.2746 219.352 22.8566C218.875 22.4387 218.604 21.8605 218.538 21.1223H219.563C219.629 21.6105 219.803 21.9787 220.084 22.2267C220.366 22.4748 220.737 22.5988 221.198 22.5988C221.702 22.5988 222.097 22.4269 222.384 22.0832C222.671 21.7394 222.815 21.2648 222.815 20.6594C222.815 20.0891 222.66 19.631 222.349 19.2853C222.039 18.9396 221.625 18.7668 221.11 18.7668C220.637 18.7668 220.266 18.8703 219.997 19.0773L219.709 19.3117L218.842 19.0891Z" fill="white"/>
<path d="M262.26 14.8293V15.7492H262.061C261.217 15.7648 260.545 16.0148 260.045 16.4992C259.545 16.9836 259.256 17.6652 259.178 18.5441C259.627 18.0285 260.24 17.7707 261.018 17.7707C261.76 17.7707 262.353 18.0324 262.796 18.5558C263.239 19.0793 263.461 19.7551 263.461 20.5832C263.461 21.4621 263.222 22.1652 262.743 22.6926C262.265 23.2199 261.623 23.4836 260.818 23.4836C260.002 23.4836 259.34 23.1701 258.832 22.5432C258.324 21.9162 258.07 21.1086 258.07 20.1203V19.7043C258.07 18.134 258.405 16.9338 259.075 16.1037C259.745 15.2736 260.742 14.8488 262.066 14.8293H262.26ZM260.836 18.673C260.465 18.673 260.123 18.7844 259.811 19.007C259.498 19.2297 259.281 19.509 259.16 19.8449V20.2433C259.16 20.9465 259.318 21.5129 259.635 21.9426C259.951 22.3723 260.346 22.5871 260.818 22.5871C261.307 22.5871 261.69 22.4074 261.97 22.048C262.249 21.6887 262.389 21.218 262.389 20.6359C262.389 20.05 262.247 19.5764 261.964 19.215C261.681 18.8537 261.305 18.673 260.836 18.673Z" fill="white"/>
<path d="M303.176 15.4445L299.643 23.3664H298.506L302.027 15.7258H297.41V14.8351H303.176V15.4445V15.4445Z" fill="white"/>
<path d="M104.949 23.3664H99.3589V22.5871L102.312 19.3058C102.75 18.8098 103.051 18.4064 103.217 18.0959C103.383 17.7853 103.466 17.4641 103.466 17.132C103.466 16.6867 103.332 16.3215 103.062 16.0363C102.792 15.7512 102.433 15.6086 101.984 15.6086C101.445 15.6086 101.026 15.7619 100.727 16.0685C100.428 16.3752 100.279 16.8019 100.279 17.3488H99.1948C99.1948 16.5637 99.4478 15.9289 99.9536 15.4445C100.459 14.9601 101.136 14.718 101.984 14.718C102.777 14.718 103.404 14.926 103.865 15.342C104.326 15.758 104.556 16.3117 104.556 17.0031C104.556 17.843 104.021 18.843 102.951 20.0031L100.666 22.4816H104.949V23.3664V23.3664Z" fill="white"/>
<path d="M140.597 18.5734H141.412C141.923 18.5656 142.326 18.4308 142.619 18.1691C142.912 17.9074 143.058 17.5539 143.058 17.1086C143.058 16.1086 142.56 15.6086 141.564 15.6086C141.095 15.6086 140.721 15.7424 140.442 16.0099C140.163 16.2775 140.023 16.632 140.023 17.0734H138.939C138.939 16.3976 139.186 15.8361 139.68 15.3889C140.174 14.9416 140.802 14.718 141.564 14.718C142.369 14.718 143 14.9308 143.457 15.3566C143.914 15.7824 144.142 16.3742 144.142 17.132C144.142 17.5031 144.022 17.8625 143.782 18.2101C143.542 18.5578 143.214 18.8176 142.8 18.9894C143.269 19.1379 143.631 19.384 143.887 19.7277C144.143 20.0715 144.271 20.4914 144.271 20.9875C144.271 21.7531 144.021 22.3605 143.521 22.8098C143.021 23.259 142.371 23.4836 141.57 23.4836C140.769 23.4836 140.118 23.2668 139.616 22.8332C139.114 22.3996 138.863 21.8273 138.863 21.1164H139.953C139.953 21.5656 140.099 21.925 140.392 22.1945C140.685 22.4641 141.078 22.5988 141.57 22.5988C142.093 22.5988 142.494 22.4621 142.771 22.1887C143.048 21.9152 143.187 21.5226 143.187 21.0109C143.187 20.5148 143.035 20.134 142.73 19.8683C142.425 19.6027 141.986 19.466 141.412 19.4582H140.597V18.5734V18.5734Z" fill="white"/>
<path d="M183.259 20.5012H184.443V21.3859H183.259V23.3664H182.169V21.3859H178.285V20.7473L182.105 14.8351H183.259V20.5012V20.5012ZM179.515 20.5012H182.169V16.3176L182.041 16.5519L179.515 20.5012Z" fill="white"/>
</svg>
