<svg width="37" height="22" viewBox="0 0 37 22" fill="none" xmlns="http://www.w3.org/2000/svg">
<path d="M31.6037 7.53086L20.73 1.25347C19.5325 0.562182 17.5849 0.562182 16.3874 1.25347L1.17122 10.0378C-0.0262373 10.7291 -0.0262371 11.8535 1.17122 12.5447L16.3874 21.3291C17.5849 22.0204 19.5325 22.0204 20.73 21.3291L35.9462 12.5447C37.1437 11.8535 37.1437 10.7291 35.9462 10.0378L31.6037 7.53086ZM30.5181 13.1715L27.2612 11.2913L30.518 9.41107L33.7749 11.2913L30.5181 13.1715ZM13.1306 5.64062L16.3874 7.52083L12.0275 10.0378L8.77065 8.1576L13.1306 5.64062ZM18.5587 8.7743L22.9186 11.2913L18.5587 13.8082L14.1988 11.2913L18.5587 8.7743ZM25.0899 12.5447L28.3468 14.425L23.9869 16.9419L20.73 15.0617L25.0899 12.5447ZM28.3468 8.1576L25.0899 10.0378L20.73 7.52083L23.9869 5.64062L28.3468 8.1576ZM21.8156 4.38715L18.5587 6.26736L15.3018 4.38715L18.5587 2.50694L21.8156 4.38715ZM6.59938 9.41107L9.85628 11.2913L6.59938 13.1715L3.34248 11.2913L6.59938 9.41107ZM8.77065 14.425L12.0275 12.5447L16.3874 15.0617L13.1305 16.9419L8.77065 14.425ZM15.3018 18.1954L18.5587 16.3152L21.8167 18.196L18.5598 20.0762L15.3018 18.1954Z" fill="#FF2D55"/>
</svg>
